<?xml version="1.0" standalone="no"?>
<!DOCTYPE svg PUBLIC "-//W3C//DTD SVG 20010904//EN"
 "http://www.w3.org/TR/2001/REC-SVG-20010904/DTD/svg10.dtd">
<svg version="1.0" xmlns="http://www.w3.org/2000/svg"
 width="446.000000pt" height="244.000000pt" viewBox="0 0 446.000000 244.000000"
 preserveAspectRatio="xMidYMid meet">

<g transform="translate(0.000000,244.000000) scale(0.100000,-0.100000)"
fill="#000000" stroke="none">
<path d="M10 2420 c0 -18 7 -20 85 -20 l85 0 0 -685 0 -685 -85 0 c-78 0 -85
-2 -85 -20 0 -20 7 -20 380 -20 373 0 380 0 380 20 0 18 -7 20 -85 20 l-85 0
0 346 0 345 58 -7 c76 -9 101 -19 140 -57 45 -44 60 -102 67 -274 11 -237 39
-315 135 -367 56 -30 160 -47 248 -39 l58 5 -7 58 c-4 32 -10 63 -13 69 -4 6
-11 95 -15 198 -7 156 -12 198 -30 245 -40 103 -150 178 -263 178 -21 0 -38 5
-38 10 0 6 8 10 18 10 33 0 137 30 188 55 104 51 162 132 171 244 15 175 -84
295 -287 350 -120 33 -241 41 -642 41 -371 0 -378 0 -378 -20z m767 -51 c83
-40 116 -122 116 -289 0 -225 -56 -302 -240 -326 l-53 -7 0 328 0 328 66 -6
c37 -4 87 -16 111 -28z"/>
<path d="M3088 2434 c-5 -4 -8 -13 -8 -21 0 -10 22 -13 90 -13 l90 0 0 -685 0
-685 -54 0 c-50 0 -66 -9 -66 -37 0 -3 204 -3 453 0 478 5 522 9 650 57 84 32
137 76 172 145 28 54 30 67 30 164 0 96 -3 112 -28 163 -49 100 -151 164 -313
197 l-87 18 74 18 c130 31 216 87 266 173 22 38 28 61 31 133 8 155 -40 240
-171 304 -131 63 -161 67 -667 72 -250 3 -458 1 -462 -3z m769 -66 c78 -51
120 -182 110 -343 -12 -190 -74 -266 -221 -269 l-71 -1 -3 324 -2 323 73 -4
c59 -3 82 -8 114 -30z m9 -668 c99 -38 155 -176 140 -351 -10 -118 -39 -201
-89 -253 -48 -50 -92 -66 -184 -66 l-63 0 0 338 c0 186 3 342 8 346 9 11 150
0 188 -14z"/>
<path d="M2052 2265 c-77 -17 -156 -53 -200 -90 -100 -84 -86 -219 43 -400
l47 -65 -29 -11 c-139 -52 -259 -141 -306 -227 l-28 -51 48 5 c76 9 123 -12
151 -66 12 -24 22 -61 22 -82 0 -55 -36 -140 -77 -183 -40 -41 -40 -42 35 -76
62 -27 122 -36 122 -17 0 12 37 20 165 38 l165 23 -51 17 c-102 35 -184 154
-214 315 -18 93 -19 219 -1 260 l12 29 182 -268 c140 -208 183 -265 188 -250
19 54 58 135 71 146 12 10 18 9 29 -6 16 -22 12 -43 -23 -144 -14 -40 -24 -75
-21 -77 4 -4 290 13 345 21 l33 5 -61 91 -61 90 51 102 c47 92 101 252 101
296 0 45 9 50 91 50 64 0 79 3 79 15 0 13 -29 15 -200 15 -171 0 -200 -2 -200
-15 0 -12 18 -15 101 -15 l102 0 -7 -52 c-13 -94 -83 -281 -128 -341 -13 -17
-28 3 -174 226 l-161 244 70 22 c101 31 168 66 222 113 128 113 90 243 -87
300 -84 27 -351 35 -446 13z m241 -53 c35 -59 20 -357 -18 -357 -15 0 -103
175 -115 229 -19 90 20 170 83 164 23 -2 36 -12 50 -36z"/>
<path d="M1612 1390 c-18 -4 -36 -11 -40 -14 -3 -4 -6 -40 -5 -79 1 -74 21
-136 62 -187 17 -21 22 -23 45 -12 32 14 84 104 92 158 7 46 -13 101 -44 120
-27 17 -73 23 -110 14z"/>
<path d="M2510 1058 c-63 -6 -117 -11 -118 -13 -2 -2 4 -15 15 -29 l18 -25
211 -1 c184 0 213 2 218 16 9 23 8 24 -19 24 -14 0 -29 8 -35 20 -9 18 -20 20
-93 19 -45 -1 -134 -6 -197 -11z"/>
<path d="M1445 1049 c-11 -4 -39 -8 -62 -8 -41 -1 -43 -3 -43 -30 l0 -29 61
14 c71 17 79 20 79 39 0 19 -11 24 -35 14z"/>
<path d="M2175 1024 c-55 -7 -140 -20 -190 -28 l-90 -15 140 3 c136 4 255 26
255 47 0 5 -3 9 -7 8 -5 -1 -53 -7 -108 -15z"/>
<path d="M2890 1010 c0 -18 7 -20 65 -20 58 0 65 2 65 20 0 18 -7 20 -65 20
-58 0 -65 -2 -65 -20z"/>
<path d="M3082 1013 c5 -25 28 -28 28 -4 0 12 -6 21 -16 21 -9 0 -14 -7 -12
-17z"/>
</g>
</svg>
